<svg width="113" height="28" viewBox="0 0 113 28" fill="none" xmlns="http://www.w3.org/2000/svg">
<path d="M110.01 6.77615C109.715 6.77615 109.441 6.72309 109.19 6.61697C108.938 6.51084 108.718 6.36345 108.529 6.17479C108.341 5.98219 108.194 5.76012 108.088 5.50857C107.985 5.25702 107.934 4.98582 107.934 4.69496C107.934 4.40411 107.987 4.1329 108.093 3.88135C108.199 3.6298 108.347 3.40969 108.536 3.22103C108.724 3.02844 108.944 2.87908 109.196 2.77295C109.451 2.66683 109.727 2.61377 110.021 2.61377C110.316 2.61377 110.589 2.66683 110.84 2.77295C111.096 2.87515 111.316 3.02057 111.501 3.20924C111.689 3.3979 111.835 3.61801 111.937 3.86956C112.043 4.11718 112.097 4.38838 112.097 4.68317C112.097 4.97796 112.043 5.25309 111.937 5.50857C111.831 5.76012 111.682 5.98219 111.489 6.17479C111.3 6.36345 111.08 6.51084 110.829 6.61697C110.577 6.72309 110.304 6.77615 110.01 6.77615ZM110.564 5.83873L109.998 4.96616H110.611L111.177 5.83873H110.564ZM110.01 6.39293C110.249 6.39293 110.471 6.34969 110.675 6.26322C110.88 6.17282 111.059 6.05098 111.212 5.89769C111.366 5.7444 111.483 5.5636 111.566 5.35528C111.652 5.14697 111.696 4.92293 111.696 4.68317C111.696 4.44341 111.652 4.22134 111.566 4.01695C111.483 3.80864 111.367 3.6298 111.218 3.48044C111.072 3.32715 110.898 3.20924 110.693 3.1267C110.489 3.04023 110.265 2.99699 110.021 2.99699C109.782 2.99699 109.558 3.04023 109.349 3.1267C109.145 3.21317 108.966 3.33501 108.812 3.49223C108.663 3.64552 108.547 3.82436 108.465 4.02874C108.382 4.23313 108.341 4.4552 108.341 4.69496C108.341 4.93472 108.382 5.15876 108.465 5.36707C108.547 5.57146 108.663 5.7503 108.812 5.90358C108.962 6.05687 109.139 6.17675 109.343 6.26322C109.547 6.34969 109.77 6.39293 110.01 6.39293ZM109.113 5.83873V3.55119H110.109C110.42 3.55119 110.664 3.6239 110.84 3.76933C111.017 3.91476 111.106 4.11325 111.106 4.3648C111.106 4.62814 111.017 4.83056 110.84 4.97206C110.664 5.10963 110.42 5.17841 110.109 5.17841H109.727V5.83873H109.113ZM109.72 4.71854H110.069C110.206 4.71854 110.312 4.6871 110.387 4.62421C110.465 4.56132 110.505 4.47485 110.505 4.3648C110.505 4.25082 110.465 4.16238 110.387 4.09949C110.312 4.03661 110.206 4.00516 110.069 4.00516H109.72V4.71854Z" fill="#6B49FF"/>
<path d="M60.4924 6.21338H65.9382C66.0208 6.21338 66.0773 6.29671 66.0465 6.37307L60.5215 20.0048C59.9771 21.0342 59.5957 21.3092 58.8458 21.4826C58.8376 21.4845 58.8283 21.4855 58.8196 21.4855H53.1846C53.1019 21.4855 53.0454 21.4014 53.0768 21.325L58.833 7.46186C59.2691 6.56034 59.6295 6.2826 60.4924 6.21338Z" fill="#6B49FF"/>
<path d="M68.4588 21.4856H63.0823C62.9996 21.4856 62.9432 21.4018 62.9746 21.3254L68.5857 7.66516C69.1179 6.65261 69.4667 6.3161 70.216 6.30054H88.9959C89.0786 6.30054 89.1351 6.38358 89.1042 6.45988L83.8698 19.4822C83.3545 20.5058 83.0954 21.1137 81.9367 21.4802C81.9251 21.4837 81.9134 21.4856 81.9012 21.4856H76.3023C76.2184 21.4856 76.1625 21.4004 76.1951 21.3239L79.9576 12.5305C79.9903 12.4539 79.9344 12.3687 79.8505 12.3687H73.6711C73.6239 12.3687 73.5814 12.3971 73.5634 12.4406L70.6527 19.4822C70.0291 20.6949 69.6221 21.269 68.4798 21.4836C68.4728 21.4849 68.4658 21.4856 68.4588 21.4856Z" fill="#6B49FF"/>
<path d="M91.7481 21.4855H86.3716C86.2889 21.4855 86.2324 21.4021 86.2639 21.3258L94.9027 0.0725043C94.9207 0.0286766 94.9632 0 95.011 0H101.428C101.51 0 101.567 0.0825352 101.536 0.158746L99.2166 6.02559C99.1863 6.10183 99.2428 6.18435 99.3249 6.18435H105.621C105.703 6.18435 105.759 6.26669 105.729 6.34288L104.045 10.6266C103.537 11.7062 103.129 12.0466 102.223 12.2497C102.215 12.2516 102.206 12.2526 102.198 12.2526H97.1158C96.6634 12.2639 96.526 12.3987 96.4171 12.7752L93.6223 19.8596C93.1705 20.8853 92.7967 21.2898 91.7696 21.4835C91.7626 21.4848 91.7556 21.4855 91.7481 21.4855Z" fill="#6B49FF"/>
<path d="M8.11579 2.15833L3.82268 12.1488C3.78975 12.2255 3.84612 12.3107 3.92972 12.3107H9.54649C9.83319 12.3187 10.7457 11.8255 11.0895 10.8299L12.6906 6.85221C12.9085 6.30648 13.1313 6.1814 13.6222 6.12635H28.6922C28.6991 6.12635 28.706 6.12571 28.7127 6.12455C29.3946 6.00144 29.6881 5.70465 30.0999 4.9069L32.0133 0.276601C32.0448 0.200158 31.9885 0.116211 31.9056 0.116211H11.3224C9.61246 0.309698 8.98561 0.850278 8.12592 2.13971C8.12202 2.14556 8.11859 2.15187 8.11579 2.15833Z" fill="#6B49FF"/>
<path d="M2.64568 15.4005L0.0674546 21.3816C0.0344136 21.4583 0.0907795 21.5436 0.174437 21.5436H20.8421C22.512 21.3487 23.3116 21.0068 24.1319 19.366L28.3428 9.45251C28.3753 9.37591 28.319 9.29102 28.2356 9.29102H22.618C21.9025 9.31988 21.5754 9.49646 21.2206 10.3072L19.5321 14.6334C19.3585 15.1081 19.1888 15.2852 18.7169 15.3302H2.75266C2.70612 15.3302 2.66405 15.3578 2.64568 15.4005Z" fill="#6B49FF"/>
<path fill-rule="evenodd" clip-rule="evenodd" d="M24.1606 27.5247H30.8949C30.9423 27.5247 30.985 27.496 31.0028 27.4522L33.2441 21.95C33.4093 21.556 33.5509 21.3995 34.0592 21.4565H48.7901C49.5058 21.4203 49.7669 21.2023 50.0711 20.5854L55.9441 6.31549C55.9756 6.23907 55.9192 6.15528 55.8363 6.15528H34.2339C33.2348 6.14384 32.8248 6.32693 32.458 7.11342L24.053 27.3641C24.0212 27.4406 24.0776 27.5247 24.1606 27.5247ZM35.6895 15.3011L37.0822 12.6679C37.0854 12.662 37.088 12.6556 37.0901 12.6492C37.1918 12.3398 37.3079 12.2796 37.5818 12.3106H46.8338C46.9184 12.3106 46.9747 12.3977 46.9399 12.4746L45.908 14.7495C45.7958 15.061 45.6629 15.1999 45.3215 15.3756C45.3053 15.3839 45.2871 15.3882 45.2689 15.3882H35.7363C35.6914 15.3882 35.6647 15.3384 35.6895 15.3011Z" fill="#6B49FF"/>
<path d="M38.4998 27.9385V24.8623H40.0772C40.4826 24.8623 40.7849 24.937 40.9849 25.0864C41.1849 25.2329 41.2846 25.4263 41.2846 25.6665C41.2846 25.8247 41.2418 25.9638 41.1571 26.084C41.0744 26.2011 40.9571 26.2949 40.8046 26.3652C40.6548 26.4326 40.4751 26.4663 40.2667 26.4663L40.3548 26.2554C40.5721 26.2554 40.7619 26.289 40.9232 26.3564C41.0846 26.4209 41.21 26.5161 41.2981 26.6421C41.389 26.7651 41.4344 26.916 41.4344 27.0947C41.4344 27.3613 41.3259 27.5693 41.1083 27.7187C40.8941 27.8653 40.5795 27.9385 40.1653 27.9385H38.4998ZM39.3634 27.3101H40.0948C40.2447 27.3101 40.3577 27.2852 40.4341 27.2353C40.5138 27.1826 40.5531 27.1035 40.5531 26.998C40.5531 26.8926 40.5138 26.815 40.4341 26.7651C40.3577 26.7124 40.2447 26.686 40.0948 26.686H39.3017V26.084H39.9627C40.1096 26.084 40.2197 26.0591 40.2931 26.0093C40.3665 25.9594 40.4033 25.8847 40.4033 25.7852C40.4033 25.6856 40.3665 25.6123 40.2931 25.5654C40.2197 25.5156 40.1096 25.4907 39.9627 25.4907H39.3634V27.3101ZM43.4416 28C43.1949 28 42.9671 27.9604 42.759 27.8813C42.5502 27.8022 42.3678 27.6909 42.2126 27.5474C42.0594 27.4009 41.9408 27.231 41.8553 27.0376C41.7699 26.8442 41.7279 26.6318 41.7279 26.4004C41.7279 26.169 41.7699 25.9565 41.8553 25.7632C41.9408 25.5698 42.0594 25.4013 42.2126 25.2578C42.3678 25.1113 42.5502 24.9985 42.759 24.9194C42.9671 24.8403 43.1949 24.8008 43.4416 24.8008C43.6911 24.8008 43.9189 24.8403 44.1249 24.9194C44.3331 24.9985 44.5141 25.1113 44.6666 25.2578C44.8191 25.4013 44.9384 25.5698 45.0238 25.7632C45.112 25.9565 45.156 26.169 45.156 26.4004C45.156 26.6318 45.112 26.8457 45.0238 27.042C44.9384 27.2353 44.8191 27.4038 44.6666 27.5474C44.5141 27.6909 44.3331 27.8022 44.1249 27.8813C43.9189 27.9604 43.6911 28 43.4416 28ZM43.4416 27.2793C43.5589 27.2793 43.668 27.2588 43.7677 27.2178C43.8707 27.1767 43.9589 27.1182 44.0321 27.042C44.1087 26.9629 44.167 26.8691 44.2083 26.7607C44.2524 26.6524 44.2748 26.5322 44.2748 26.4004C44.2748 26.2656 44.2524 26.1455 44.2083 26.04C44.167 25.9317 44.1087 25.8394 44.0321 25.7632C43.9589 25.6841 43.8707 25.624 43.7677 25.583C43.668 25.542 43.5589 25.5215 43.4416 25.5215C43.3243 25.5215 43.2138 25.542 43.1115 25.583C43.0112 25.624 42.923 25.6841 42.8471 25.7632C42.7732 25.8394 42.7149 25.9317 42.6709 26.04C42.6295 26.1455 42.6092 26.2656 42.6092 26.4004C42.6092 26.5322 42.6295 26.6524 42.6709 26.7607C42.7149 26.8691 42.7732 26.9629 42.8471 27.042C42.923 27.1182 43.0112 27.1767 43.1115 27.2178C43.2138 27.2588 43.3243 27.2793 43.4416 27.2793ZM47.168 28C46.9213 28 46.6935 27.9604 46.4854 27.8813C46.2766 27.8022 46.0942 27.6909 45.939 27.5474C45.7858 27.4009 45.6672 27.231 45.5817 27.0376C45.497 26.8442 45.4543 26.6318 45.4543 26.4004C45.4543 26.169 45.497 25.9565 45.5817 25.7632C45.6672 25.5698 45.7858 25.4013 45.939 25.2578C46.0942 25.1113 46.2766 24.9985 46.4854 24.9194C46.6935 24.8403 46.9213 24.8008 47.168 24.8008C47.4182 24.8008 47.6453 24.8403 47.8513 24.9194C48.0595 24.9985 48.2405 25.1113 48.393 25.2578C48.5462 25.4013 48.6648 25.5698 48.7502 25.7632C48.8384 25.9565 48.8824 26.169 48.8824 26.4004C48.8824 26.6318 48.8384 26.8457 48.7502 27.042C48.6648 27.2353 48.5462 27.4038 48.393 27.5474C48.2405 27.6909 48.0595 27.8022 47.8513 27.8813C47.6453 27.9604 47.4182 28 47.168 28ZM47.168 27.2793C47.286 27.2793 47.3944 27.2588 47.4941 27.2178C47.5971 27.1767 47.6853 27.1182 47.7585 27.042C47.8351 26.9629 47.894 26.8691 47.9347 26.7607C47.9788 26.6524 48.0012 26.5322 48.0012 26.4004C48.0012 26.2656 47.9788 26.1455 47.9347 26.04C47.894 25.9317 47.8351 25.8394 47.7585 25.7632C47.6853 25.6841 47.5971 25.624 47.4941 25.583C47.3944 25.542 47.286 25.5215 47.168 25.5215C47.0507 25.5215 46.9403 25.542 46.8379 25.583C46.7376 25.624 46.6494 25.6841 46.5735 25.7632C46.4996 25.8394 46.4413 25.9317 46.3973 26.04C46.3559 26.1455 46.3356 26.2656 46.3356 26.4004C46.3356 26.5322 46.3559 26.6524 46.3973 26.7607C46.4413 26.8691 46.4996 26.9629 46.5735 27.042C46.6494 27.1182 46.7376 27.1767 46.8379 27.2178C46.9403 27.2588 47.0507 27.2793 47.168 27.2793ZM50.1189 27.2573L50.0708 26.2817L51.3967 24.8623H52.3573L51.0354 26.2905L50.5507 26.7959L50.1189 27.2573ZM49.3393 27.9385V24.8623H50.203V27.9385H49.3393ZM51.4103 27.9385L50.4057 26.6685L50.9737 26.062L52.4238 27.9385H51.4103ZM54.715 27.9385V26.6377L54.9177 27.1606L53.5382 24.8623H54.4595L55.4553 26.5278H54.9218L55.9224 24.8623H56.7684L55.3936 27.1606L55.5875 26.6377V27.9385H54.715ZM58.4123 28C58.1655 28 57.9378 27.9604 57.729 27.8813C57.5202 27.8022 57.3385 27.6909 57.1826 27.5474C57.0301 27.4009 56.9108 27.231 56.826 27.0376C56.7406 26.8442 56.6979 26.6318 56.6979 26.4004C56.6979 26.169 56.7406 25.9565 56.826 25.7632C56.9108 25.5698 57.0301 25.4013 57.1826 25.2578C57.3385 25.1113 57.5202 24.9985 57.729 24.9194C57.9378 24.8403 58.1655 24.8008 58.4123 24.8008C58.6618 24.8008 58.8895 24.8403 59.0949 24.9194C59.3037 24.9985 59.484 25.1113 59.6373 25.2578C59.7898 25.4013 59.9084 25.5698 59.9938 25.7632C60.082 25.9565 60.126 26.169 60.126 26.4004C60.126 26.6318 60.082 26.8457 59.9938 27.042C59.9084 27.2353 59.7898 27.4038 59.6373 27.5474C59.484 27.6909 59.3037 27.8022 59.0949 27.8813C58.8895 27.9604 58.6618 28 58.4123 28ZM58.4123 27.2793C58.5296 27.2793 58.638 27.2588 58.7384 27.2178C58.8407 27.1767 58.9289 27.1182 59.0027 27.042C59.0787 26.9629 59.1376 26.8691 59.179 26.7607C59.2231 26.6524 59.2447 26.5322 59.2447 26.4004C59.2447 26.2656 59.2231 26.1455 59.179 26.04C59.1376 25.9317 59.0787 25.8394 59.0027 25.7632C58.9289 25.6841 58.8407 25.624 58.7384 25.583C58.638 25.542 58.5296 25.5215 58.4123 25.5215C58.2943 25.5215 58.1845 25.542 58.0815 25.583C57.9818 25.624 57.8937 25.6841 57.8171 25.7632C57.7439 25.8394 57.6849 25.9317 57.6409 26.04C57.5995 26.1455 57.5792 26.2656 57.5792 26.4004C57.5792 26.5322 57.5995 26.6524 57.6409 26.7607C57.6849 26.8691 57.7439 26.9629 57.8171 27.042C57.8937 27.1182 57.9818 27.1767 58.0815 27.2178C58.1845 27.2588 58.2943 27.2793 58.4123 27.2793ZM62.0065 28C61.551 28 61.1957 27.8755 60.9402 27.6265C60.6846 27.3775 60.5565 27.0244 60.5565 26.5674V24.8623H61.4289V26.541C61.4289 26.8047 61.4805 26.9936 61.5835 27.1079C61.6892 27.2222 61.833 27.2793 62.0153 27.2793C62.197 27.2793 62.34 27.2222 62.4424 27.1079C62.5454 26.9936 62.597 26.8047 62.597 26.541V24.8623H63.4558V26.5674C63.4558 27.0244 63.3284 27.3775 63.0728 27.6265C62.8173 27.8755 62.4614 28 62.0065 28ZM64.047 27.9385V24.8623H65.457C65.739 24.8623 65.9817 24.9077 66.1844 24.9985C66.3898 25.0893 66.5484 25.2212 66.6603 25.394C66.7714 25.5639 66.8277 25.7661 66.8277 26.0005C66.8277 26.2319 66.7714 26.4326 66.6603 26.6025C66.5484 26.7695 66.3898 26.8985 66.1844 26.9893C65.9817 27.0771 65.739 27.1211 65.457 27.1211H64.5317L64.9194 26.7563V27.9385H64.047ZM65.9553 27.9385L65.1886 26.8179H66.1179L66.8894 27.9385H65.9553ZM64.9194 26.8486L64.5317 26.4487H65.4041C65.5865 26.4487 65.7214 26.4092 65.8095 26.3301C65.9003 26.251 65.9464 26.1411 65.9464 26.0005C65.9464 25.857 65.9003 25.7456 65.8095 25.6665C65.7214 25.5874 65.5865 25.5479 65.4041 25.5479H64.5317L64.9194 25.1479V26.8486ZM70.1467 28C69.8999 28 69.6722 27.9604 69.4634 27.8813C69.2546 27.8022 69.0729 27.6909 68.917 27.5474C68.7645 27.4009 68.6451 27.231 68.5604 27.0376C68.475 26.8442 68.4323 26.6318 68.4323 26.4004C68.4323 26.169 68.475 25.9565 68.5604 25.7632C68.6451 25.5698 68.7645 25.4013 68.917 25.2578C69.0729 25.1113 69.2546 24.9985 69.4634 24.9194C69.6722 24.8403 69.8999 24.8008 70.1467 24.8008C70.3962 24.8008 70.6239 24.8403 70.8293 24.9194C71.0381 24.9985 71.2184 25.1113 71.3716 25.2578C71.5242 25.4013 71.6428 25.5698 71.7282 25.7632C71.8163 25.9565 71.8604 26.169 71.8604 26.4004C71.8604 26.6318 71.8163 26.8457 71.7282 27.042C71.6428 27.2353 71.5242 27.4038 71.3716 27.5474C71.2184 27.6909 71.0381 27.8022 70.8293 27.8813C70.6239 27.9604 70.3962 28 70.1467 28ZM70.1467 27.2793C70.264 27.2793 70.3724 27.2588 70.4728 27.2178C70.5751 27.1767 70.6632 27.1182 70.7371 27.042C70.8131 26.9629 70.872 26.8691 70.9134 26.7607C70.9575 26.6524 70.9791 26.5322 70.9791 26.4004C70.9791 26.2656 70.9575 26.1455 70.9134 26.04C70.872 25.9317 70.8131 25.8394 70.7371 25.7632C70.6632 25.6841 70.5751 25.624 70.4728 25.583C70.3724 25.542 70.264 25.5215 70.1467 25.5215C70.0287 25.5215 69.9189 25.542 69.8159 25.583C69.7162 25.624 69.6281 25.6841 69.5515 25.7632C69.4783 25.8394 69.4193 25.9317 69.3752 26.04C69.3339 26.1455 69.3135 26.2656 69.3135 26.4004C69.3135 26.5322 69.3339 26.6524 69.3752 26.7607C69.4193 26.8691 69.4783 26.9629 69.5515 27.042C69.6281 27.1182 69.7162 27.1767 69.8159 27.2178C69.9189 27.2588 70.0287 27.2793 70.1467 27.2793ZM72.9762 27.9385L71.9763 24.8623H72.8752L73.7165 27.5254H73.263L74.1483 24.8623H74.9503L75.7875 27.5254H75.3516L76.2193 24.8623H77.0524L76.0518 27.9385H75.1177L74.4039 25.6753H74.6554L73.9104 27.9385H72.9762ZM77.3649 27.9385V24.8623H78.0835L79.7843 26.9102H79.4447V24.8623H80.2995V27.9385H79.5816L77.8808 25.8906H78.2198V27.9385H77.3649ZM83.7392 28C83.4958 28 83.2694 27.9619 83.0606 27.8857C82.8525 27.8066 82.6715 27.6953 82.519 27.5518C82.3692 27.4082 82.2519 27.2397 82.1665 27.0464C82.0811 26.8501 82.0384 26.6348 82.0384 26.4004C82.0384 26.166 82.0811 25.9521 82.1665 25.7588C82.2519 25.5625 82.3705 25.3926 82.523 25.249C82.6763 25.1055 82.8566 24.9956 83.0654 24.9194C83.2769 24.8403 83.5074 24.8008 83.7568 24.8008C84.0476 24.8008 84.308 24.8491 84.5371 24.9458C84.7662 25.0425 84.9553 25.1816 85.1052 25.3633L84.55 25.8643C84.4442 25.75 84.3296 25.665 84.2063 25.6094C84.0863 25.5508 83.9507 25.5215 83.8009 25.5215C83.6687 25.5215 83.5487 25.542 83.4396 25.583C83.3311 25.624 83.2389 25.6841 83.1623 25.7632C83.0857 25.8394 83.0254 25.9317 82.9813 26.04C82.9406 26.1455 82.9196 26.2656 82.9196 26.4004C82.9196 26.5293 82.9406 26.648 82.9813 26.7563C83.0254 26.8647 83.0857 26.9585 83.1623 27.0376C83.2389 27.1138 83.3297 27.1738 83.4355 27.2178C83.544 27.2588 83.6633 27.2793 83.7921 27.2793C83.9216 27.2793 84.0476 27.2588 84.171 27.2178C84.2944 27.1738 84.4198 27.1006 84.5459 26.998L85.0347 27.6089C84.8584 27.7348 84.6544 27.8315 84.4225 27.8989C84.1907 27.9663 83.9629 28 83.7392 28ZM84.2639 27.4946V26.3345H85.0347V27.6089L84.2639 27.4946ZM85.2177 27.9385L86.5796 24.8623H87.4385L88.8044 27.9385H87.8967L86.8304 25.2886H87.1741L86.1078 27.9385H85.2177ZM85.9627 27.3408L86.1871 26.6992H87.694L87.9191 27.3408H85.9627ZM89.0519 27.9385V24.8623H89.7704L91.0483 26.9541H90.6693L91.9119 24.8623H92.6298L92.6386 27.9385H91.8367L91.8279 26.0796H91.9648L91.0347 27.6353H90.647L89.6911 26.0796H89.8586V27.9385H89.0519ZM94.0581 26.0532H95.4899V26.7036H94.0581V26.0532ZM94.1198 27.2661H95.7325V27.9385H93.2562V24.8623H95.6749V25.5347H94.1198V27.2661Z" fill="#6B49FF"/>
</svg>
